Coordinates
version=1
nRows=7
nColumns=63
inDegrees=yes

Units are S.I. units (second, meters, Newtons, ...)
If the header above contains a line with 'inDegrees', this indicates whether rotational values are in degrees (yes) or radians (no).

endheader
time	pelvis_tilt	pelvis_list	pelvis_rotation	pelvis_tx	pelvis_ty	pelvis_tz	hip_flexion_r	hip_adduction_r	hip_rotation_r	knee_angle_r	knee_angle_r_beta	ankle_angle_r	subtalar_angle_r	mtp_angle_r	hip_flexion_l	hip_adduction_l	hip_rotation_l	knee_angle_l	knee_angle_l_beta	ankle_angle_l	subtalar_angle_l	mtp_angle_l	L5_S1_Flex_Ext	L5_S1_Lat_Bending	L5_S1_axial_rotation	L4_L5_Flex_Ext	L4_L5_Lat_Bending	L4_L5_axial_rotation	L3_L4_Flex_Ext	L3_L4_Lat_Bending	L3_L4_axial_rotation	L2_L3_Flex_Ext	L2_L3_Lat_Bending	L2_L3_axial_rotation	L1_L2_Flex_Ext	L1_L2_Lat_Bending	L1_L2_axial_rotation	L1_T12_Flex_Ext	L1_T12_Lat_Bending	L1_T12_axial_rotation	Abs_r3	Abs_r2	Abs_r1	Abs_t1	Abs_t2	neck_flexion	neck_bending	neck_rotation	arm_flex_r	arm_add_r	arm_rot_r	elbow_flex_r	pro_sup_r	wrist_flex_r	wrist_dev_r	arm_flex_l	arm_add_l	arm_rot_l	elbow_flex_l	pro_sup_l	wrist_flex_l	wrist_dev_l
     13.20000000	      7.65776115	      2.69034396	    172.93030240	      1.17110848	      0.87382266	      0.70951299	      0.30007506	     -1.47951743	    -14.29757684	     30.34005107	      0.52953379	     29.24047720	     13.09491721	      0.00000000	     36.62283664	     -7.92455677	    -13.27253022	     18.14679204	      0.31672127	      3.53035553	    -11.35200702	      0.00000000	     -0.00106285	      0.25634397	      2.45811441	     -0.00197382	      0.34093748	      2.61174656	     -0.00174616	      0.62327474	      2.61174656	     -0.00121473	      0.62327474	      2.15085011	     -0.00098696	      0.52273663	      1.99721796	     -0.00060731	      0.39707681	      1.84358581	     -0.00759184	      2.89981430	     13.67129491	      0.00000000	      0.00000000	     -0.00000000	      0.00000000	      0.00000000	     10.88494882	    -15.70927620	      1.53326600	     41.07387050	     47.28699692	      0.00000000	      5.00000014	    -15.88797585	    -11.01085652	     25.72529110	     19.45552304	     37.47431511	      0.00000000	      5.00000014
     13.23333333	      7.30118248	      2.34034390	    173.95913662	      1.12867312	      0.87420914	      0.71540057	      0.43770065	     -2.04765178	    -10.26338330	     35.69068105	      0.62291990	     25.13965980	      4.52713164	      0.00000000	     35.74785303	     -6.54021252	    -11.28307222	     20.73272384	      0.36185429	      4.19614940	    -12.38309126	      0.00000000	     -0.00313488	      0.18649669	      2.23351652	     -0.00582179	      0.24804059	      2.37311130	     -0.00515030	      0.45344804	      2.37311130	     -0.00358286	      0.45344804	      1.95432695	     -0.00291105	      0.38030404	      1.81473217	     -0.00179127	      0.28888337	      1.67513739	     -0.02239215	      2.10968781	     12.42214881	      0.00000000	      0.00000000	     -0.00000000	      0.00000000	      0.00000000	      9.39488375	    -14.94336192	      1.10847788	     41.26258626	     47.28824355	      0.00000000	      5.00000014	    -15.03878636	    -10.48792314	     24.55649265	     18.23262228	     37.06469806	      0.00000000	      5.00000014
     13.26666667	      6.83712598	      1.75014469	    175.54452066	      1.08510830	      0.87610703	      0.72235371	      1.63924041	     -3.16110533	     -8.23671577	     42.69802841	      0.74522118	     19.41275454	     -2.22999749	      0.00000000	     34.35415841	     -4.69745327	     -9.40227777	     23.84670608	      0.41620354	      5.56334626	    -12.74702849	      0.00000000	     -0.00308683	      0.09497730	      1.86162360	     -0.00573255	      0.12631981	      1.97797507	     -0.00507135	      0.23092781	      1.97797507	     -0.00352793	      0.23092781	      1.62892065	     -0.00286643	      0.19367771	      1.51256917	     -0.00176381	      0.14711984	      1.39621770	     -0.02204889	      1.07440221	     10.35379197	      0.00000000	      0.00000000	     -0.00000000	      0.00000000	      0.00000000	      7.42773756	    -13.96865933	      1.16240488	     40.77243692	     47.32520847	      0.00000000	      5.00000014	    -13.51249145	    -10.07688833	     23.67798190	     16.52013713	     36.74706564	      0.00000000	      5.00000014
     13.30000000	      6.33229365	      1.62193465	    176.68072511	      1.04140802	      0.87970698	      0.72826753	      4.10595286	     -2.86032077	     -4.63130427	     50.31022324	      0.87807904	     11.16543161	    -11.19056464	      0.00000000	     31.97595652	     -3.46028498	     -7.41874570	     25.99496746	      0.45369777	      7.41162043	    -13.27295598	      0.00000000	     -0.00593750	      0.05804581	      1.52419019	     -0.01102653	      0.07720093	      1.61945208	     -0.00975472	      0.14113259	      1.61945208	     -0.00678597	      0.14113259	      1.33366642	     -0.00551356	      0.11836702	      1.23840453	     -0.00339269	      0.08991296	      1.14314264	     -0.04241097	      0.65662583	      8.47708859	      0.00000000	      0.00000000	     -0.00000000	      0.00000000	      0.00000000	      5.15642379	    -12.94261481	      1.08993555	     39.55603846	     48.81715395	      0.00000000	      5.00000014	    -12.69963075	     -7.93454701	      7.25025846	     16.81200911	     29.86244694	      0.00000000	      5.00000014
     13.33333333	      5.77486452	      1.46122558	    178.19579050	      0.99815812	      0.88459988	      0.73439186	      7.26284272	     -3.18475875	     -3.53729716	     57.49479607	      1.00347349	      4.80120039	    -15.00806885	      0.00000000	     28.77443013	     -2.20372663	     -6.16540994	     26.80805696	      0.46788886	      9.49530980	    -12.34880145	      0.00000000	     -0.00619019	      0.03198342	      1.07566997	     -0.01149581	      0.04253794	      1.14289934	     -0.01016987	      0.07776448	      1.14289934	     -0.00707477	      0.07776448	      0.94121122	     -0.00574821	      0.06522058	      0.87398185	     -0.00353708	      0.04954231	      0.80675248	     -0.04421594	      0.36180279	      5.98255366	      0.00000000	      0.00000000	     -0.00000000	      0.00000000	      0.00000000	      2.76719557	    -11.97479372	      1.67964709	     37.68363864	     49.00396575	      0.00000000	      5.00000014	    -10.11416310	     -7.93700691	      5.61723771	     15.69801578	     29.53485358	      0.00000000	      5.00000014
     13.36666667	      5.27702621	      1.46465221	    179.52391889	      0.95636849	      0.89013821	      0.73963370	     11.25538451	     -3.42651007	     -3.09155516	     63.64807053	      1.11086839	      1.85854213	    -16.28504364	      0.00000000	     24.97303217	     -1.52276859	     -6.00476947	     26.22826817	      0.45776964	     11.81515451	     -9.91781068	      0.00000000	     -0.00769499	      0.01997498	      0.61138321	     -0.01429037	      0.02656673	      0.64959466	     -0.01264210	      0.04856718	      0.64959466	     -0.00879461	      0.04856718	      0.53496031	     -0.00714557	      0.04073299	      0.49674886	     -0.00439692	      0.03094125	      0.45853741	     -0.05496456	      0.22596101	      3.40033001	      0.00000000	      0.00000000	     -0.00000000	      0.00000000	      0.00000000	      0.48456446	    -11.25543259	      2.99181345	     35.27119389	     50.69936163	      0.00000000	      5.00000014	     -8.04397095	     -5.38466867	    -17.22809755	     18.13203152	     26.74580947	      0.00000000	      5.00000014
     13.40000000	      4.85154443	      1.59414105	    180.59035213	      0.91630724	      0.89586284	      0.74379643	     15.90287040	     -3.55013668	     -3.07359316	     68.11257520	      1.18878870	      2.26774258	    -16.60149057	      0.00000000	     20.70936716	     -1.07396475	     -5.59602272	     24.20436998	      0.42244595	     13.53323395	     -8.16872743	      0.00000000	     -0.00737213	      0.02862216	      0.17742167	     -0.01369077	      0.03806747	      0.18851052	     -0.01211167	      0.06959191	      0.18851052	     -0.00842560	      0.06959191	      0.15524396	     -0.00684576	      0.05836630	      0.14415511	     -0.00421243	      0.04433572	      0.13306625	     -0.05265836	      0.32377955	      0.98676610	      0.00000000	      0.00000000	     -0.00000000	      0.00000000	      0.00000000	     -1.76812879	    -10.48129682	      3.68388940	     32.50862091	     50.83198904	      0.00000000	      5.00000014	     -5.38591917	     -6.24109297	    -17.50126257	     18.86734225	     27.01214957	      0.00000000	      5.00000014
